# xmcd
#
# Track frame offsets:
#	150
#	14641
#	30944
#	46187
#
# Disc length: 844 seconds
#
# Revision: 0
# Processed by: cddbd v1.5.2PL0 Copyright (c) Steve Scherf et al.
# Submitted via: audiograbber 1.81.03
#
DISCID=24034a04
DTITLE=Dennis`French - Dennis`French
DYEAR=2007
DGENRE=Folk
TTITLE0=All Over The World
TTITLE1=Dreaming
TTITLE2=This Boyz In Love With You
TTITLE3=Walking
EXTD=
EXTT0=
EXTT1=
EXTT2=
EXTT3=
PLAYORDER=
